<?xml version="1.0" standalone="no"?>
<!DOCTYPE svg PUBLIC "-//W3C//DTD SVG 20010904//EN"
 "http://www.w3.org/TR/2001/REC-SVG-20010904/DTD/svg10.dtd">
<svg version="1.0" xmlns="http://www.w3.org/2000/svg"
 width="640.000000pt" height="640.000000pt" viewBox="0 0 640.000000 640.000000"
 preserveAspectRatio="xMidYMid meet">

<g transform="translate(0.000000,640.000000) scale(0.100000,-0.100000)"
fill="#000000" stroke="none">
<path d="M3015 5839 c-384 -37 -735 -172 -1042 -403 -823 -617 -1097 -1736
-649 -2652 166 -339 412 -620 723 -825 147 -97 229 -136 254 -121 10 7 25 12
34 12 8 0 29 9 47 20 43 26 83 25 138 -2 53 -27 90 -78 90 -123 0 -31 2 -32
49 -38 27 -3 67 -15 88 -25 21 -11 58 -22 82 -25 38 -5 49 -2 75 19 19 17 36
24 50 20 12 -3 38 -9 59 -12 l39 -7 -6 64 c-9 88 19 119 106 119 51 0 116 -37
141 -80 12 -20 27 -29 57 -33 50 -6 87 -29 108 -68 20 -35 41 -36 163 -13 269
50 556 167 764 312 466 324 776 809 877 1372 26 147 35 444 19 591 -75 647
-419 1211 -961 1574 -363 243 -864 367 -1305 324z m555 -144 c399 -83 726
-259 1011 -545 551 -551 739 -1367 484 -2098 -66 -189 -157 -362 -273 -519
-82 -110 -161 -197 -166 -181 -2 7 -9 40 -15 72 -6 35 -30 94 -57 145 -26 47
-85 159 -131 249 l-84 162 35 0 c44 0 86 16 86 32 0 7 21 29 48 48 l47 35 71
-9 c67 -9 72 -11 82 -40 6 -17 25 -46 41 -63 25 -28 37 -33 75 -33 51 0 76 7
76 23 0 6 12 24 27 39 24 25 27 37 31 116 4 85 3 88 -19 98 l-24 11 32 16 c44
23 84 78 90 125 7 49 -12 107 -40 127 -28 20 -87 19 -116 -1 -25 -18 -35 -13
-55 28 -7 14 -32 31 -64 43 -33 13 -52 26 -52 36 0 25 -25 41 -57 37 -21 -2
-29 -9 -31 -28 -2 -20 -14 -29 -55 -45 -28 -11 -56 -29 -62 -40 -5 -12 -22
-36 -37 -55 l-27 -35 -39 38 c-40 39 -64 45 -107 25 -30 -14 -32 -24 -5 -38
11 -6 25 -20 31 -32 10 -19 38 -119 39 -140 0 -5 -25 -8 -56 -8 -30 0 -75 -5
-99 -11 l-44 -11 -60 53 c-55 48 -100 79 -241 166 -25 15 -66 35 -91 43 -36
12 -61 32 -107 85 l-61 70 53 55 c29 30 63 79 76 108 20 44 28 52 51 52 26 0
81 41 90 68 3 8 21 -3 51 -32 34 -33 65 -50 110 -65 35 -10 67 -15 72 -11 5 5
7 48 4 97 -3 72 -9 98 -30 136 -26 46 -26 47 -6 47 43 0 101 25 143 62 51 45
91 106 79 118 -14 14 -134 57 -180 65 -37 6 -90 -3 -141 -22 -11 -4 -14 -2 -9
5 3 6 2 82 -3 169 -9 144 -18 193 -58 316 -5 16 -1 18 33 11 57 -10 106 -37
179 -100 36 -30 65 -50 65 -44 0 6 10 15 23 21 21 9 21 9 -3 5 -19 -4 -35 5
-68 36 -24 22 -41 42 -39 44 2 2 24 -3 48 -12 34 -12 61 -13 114 -8 39 4 73 8
77 8 17 2 15 13 -4 25 -11 7 -17 8 -14 3 4 -6 -19 -13 -56 -17 -55 -6 -73 -3
-145 24 -45 17 -105 33 -133 37 -27 4 -50 11 -50 16 0 5 22 18 49 30 34 14 58
32 75 59 17 26 45 48 83 67 43 21 59 34 61 52 l4 23 -24 -26 c-12 -14 -40 -33
-60 -41 -35 -14 -38 -14 -38 2 -1 10 -6 5 -14 -13 -23 -51 -70 -91 -132 -114
l-59 -23 -25 34 c-50 67 -140 154 -188 183 l-50 30 5 67 c5 59 3 74 -21 122
-29 60 -74 104 -139 137 -138 71 -333 64 -454 -16 -89 -59 -125 -121 -125
-218 l0 -58 -61 -31 c-215 -108 -323 -279 -364 -573 -3 -27 -8 -42 -10 -33 -4
17 -7 16 -41 -2 -20 -10 -57 -33 -82 -49 -25 -17 -55 -31 -67 -31 -12 0 -24
-3 -26 -8 -3 -4 9 -7 26 -7 27 0 32 -4 35 -27 2 -18 -3 -31 -16 -39 -13 -8
-17 -19 -14 -36 7 -39 -33 -57 -61 -28 -13 13 -17 12 -29 -2 -9 -11 -9 -14 -1
-9 7 4 22 2 34 -5 33 -17 69 3 69 40 0 16 7 34 15 41 8 7 15 20 15 30 0 12 27
35 72 64 39 25 75 46 80 46 11 0 10 -35 -2 -88 -8 -34 -7 -59 5 -107 13 -51
14 -68 4 -86 -17 -33 -4 -114 29 -173 16 -28 34 -68 41 -88 15 -45 72 -98 106
-98 20 0 30 -11 55 -61 17 -33 51 -81 76 -106 l45 -45 -66 -74 c-37 -41 -73
-74 -81 -74 -17 0 -127 -57 -204 -105 -30 -19 -57 -35 -60 -35 -10 0 -60 110
-60 132 0 11 9 35 20 53 11 18 17 40 14 49 -18 48 -282 48 -301 0 -3 -8 5 -34
18 -58 l23 -44 -28 -63 c-16 -35 -31 -67 -35 -71 -3 -4 -35 15 -70 42 -68 53
-91 60 -111 35 -10 -12 -39 -15 -145 -15 -141 0 -216 -10 -270 -36 l-34 -16 0
-100 c0 -74 5 -110 19 -142 23 -54 69 -107 114 -131 19 -11 36 -28 38 -39 5
-32 46 -46 135 -46 96 0 133 11 133 40 0 12 15 29 39 44 21 13 54 43 74 66 31
36 38 40 56 30 23 -12 27 -25 11 -35 -5 -3 -10 -13 -10 -22 0 -9 -10 -36 -22
-60 -20 -39 -21 -48 -10 -88 11 -42 10 -49 -17 -108 -27 -58 -32 -64 -58 -62
-17 1 -20 1 -5 -2 12 -2 22 -9 22 -14 0 -6 -19 -42 -41 -81 -65 -111 -107
-209 -115 -267 l-7 -52 -24 23 c-14 13 -52 57 -86 98 -522 646 -589 1540 -169
2270 311 540 836 897 1452 986 155 22 463 12 620 -21z m-180 -213 c39 -19 80
-88 80 -134 0 -42 -30 -110 -46 -104 -7 3 -53 10 -100 17 -121 16 -265 2 -391
-36 -22 -7 -23 -4 -23 39 0 56 19 97 68 149 43 45 58 48 37 7 -8 -16 -15 -35
-15 -42 0 -7 10 8 23 32 26 51 58 77 107 86 l35 7 -22 -24 c-31 -34 -53 -92
-52 -136 1 -35 2 -34 9 12 9 62 31 106 67 135 26 20 35 22 108 16 44 -4 96
-15 115 -24z m119 -71 c55 -55 75 -97 75 -158 0 -29 -2 -55 -6 -58 -4 -5 -50
10 -67 22 -2 1 4 13 12 27 16 24 35 106 24 106 -3 0 -13 -25 -22 -55 -16 -56
-32 -72 -60 -61 -14 5 -14 9 2 32 21 33 22 109 1 152 -22 43 -6 40 41 -7z
m-202 -192 c74 -10 187 -39 179 -46 -2 -2 -34 4 -72 13 -82 20 -251 22 -341 4
l-62 -12 5 -35 c3 -25 0 -35 -12 -40 -26 -10 -69 10 -66 30 2 9 -2 17 -8 17
-5 0 -10 -4 -10 -10 0 -5 -11 -10 -24 -10 -14 0 -28 -5 -32 -12 -4 -7 -3 -8 4
-4 18 11 14 -15 -5 -36 -19 -21 -49 -24 -55 -6 -12 34 -187 -138 -223 -217 -8
-16 -26 -55 -40 -85 -23 -49 -26 -51 -21 -20 3 19 24 72 47 118 73 148 197
252 375 311 139 47 235 57 361 40z m283 -87 c15 -12 20 -24 15 -31 -6 -11 -9
-10 -16 0 -7 11 -9 9 -9 -5 0 -18 -1 -18 -19 -2 -10 10 -21 26 -24 37 -7 25
23 26 53 1z m-644 -37 c20 -31 11 -64 -19 -63 -43 3 -59 34 -37 68 9 13 11 13
20 0 8 -13 10 -12 10 3 0 23 7 22 26 -8z m312 -18 c4 -31 -15 -70 -29 -62 -5
4 -7 11 -4 16 4 5 1 9 -4 9 -6 0 -11 -8 -11 -17 -1 -13 -6 -9 -16 11 -22 41
-6 76 33 72 22 -2 29 -9 31 -29z m281 16 c23 -16 23 -17 5 -24 -17 -7 -17 -8
-1 -8 9 -1 17 -5 17 -10 0 -15 -57 -23 -79 -11 -24 12 -24 11 -11 44 11 30 35
33 69 9z m122 -4 c16 -11 27 -25 24 -30 -8 -12 -52 -12 -60 1 -3 6 -1 10 4 10
6 0 11 4 11 10 0 5 -7 7 -15 4 -11 -5 -13 -2 -9 10 8 20 10 20 45 -5z m-53
-32 c2 -10 -3 -17 -12 -17 -18 0 -29 16 -21 31 9 14 29 6 33 -14z m-444 -18
c29 -23 35 -45 10 -35 -14 5 -15 4 -5 -8 11 -13 9 -16 -12 -21 -30 -8 -67 9
-67 30 0 8 5 15 11 15 5 0 7 5 3 11 -6 10 11 28 27 29 4 0 18 -9 33 -21z m171
-21 c0 -9 4 -20 8 -24 13 -14 -15 -34 -49 -34 -39 0 -52 14 -27 29 10 6 13 11
7 11 -6 0 -23 -9 -37 -20 -32 -25 -37 -25 -37 1 0 14 6 19 18 17 9 -1 28 8 40
20 27 27 77 27 77 0z m229 0 c-6 -21 -5 -21 10 -9 16 14 17 12 14 -19 -3 -37
-33 -64 -47 -42 -4 8 -12 12 -17 10 -20 -8 -13 34 10 57 31 31 39 32 30 3z
m108 5 c19 -17 24 -43 8 -43 -5 0 -10 -7 -10 -15 0 -38 -51 -3 -65 45 -6 20
-5 23 6 13 18 -18 34 -16 19 2 -10 12 -9 15 5 15 10 0 27 -7 37 -17z m-919
-29 c10 -11 -11 -41 -33 -47 -14 -4 -20 0 -20 12 0 29 35 52 53 35z m426 -46
c-11 -21 -11 -22 5 -9 21 18 26 12 15 -16 -7 -19 -16 -23 -49 -23 -22 0 -40 3
-40 6 0 16 24 46 43 54 34 14 39 12 26 -12z m101 -8 c30 -30 25 -40 -20 -40
-36 0 -40 2 -40 26 0 23 2 25 15 14 13 -11 14 -10 9 4 -9 22 12 20 36 -4z
m-430 -20 c0 -5 7 -10 15 -10 23 0 18 -37 -7 -55 -14 -9 -24 -11 -26 -5 -2 6
-7 8 -12 5 -15 -9 -18 34 -3 54 15 22 33 28 33 11z m-66 -42 c21 -29 20 -39
-1 -32 -15 5 -15 4 -3 -5 22 -15 5 -24 -27 -14 -32 11 -41 35 -21 57 18 21 34
19 52 -6z m431 -56 c-22 -20 -51 -45 -65 -55 l-25 -17 30 14 c17 8 50 32 76
54 40 36 49 39 79 33 l34 -7 -51 -37 c-76 -55 -199 -110 -365 -160 -174 -54
-241 -82 -291 -127 -40 -35 -51 -63 -14 -36 12 9 39 25 60 37 l39 20 -7 -23
c-28 -96 -120 -207 -159 -192 -9 3 -16 7 -16 8 0 20 41 127 68 181 109 207
335 342 577 344 l70 0 -40 -37z m650 8 c19 -37 19 -51 0 -44 -9 4 -14 11 -13
18 1 6 -3 21 -10 34 -8 13 -9 22 -3 22 6 0 17 -13 26 -30z m-979 5 c-22 -16
-57 -21 -40 -6 7 8 29 15 54 20 3 0 -4 -6 -14 -14z m544 -60 c40 -78 122 -171
189 -214 40 -26 51 -39 60 -75 6 -24 26 -66 46 -94 34 -50 35 -54 35 -150 0
-54 -7 -141 -16 -193 -29 -173 -68 -252 -159 -320 -54 -41 -155 -85 -155 -68
0 5 -17 -4 -39 -21 -95 -77 -251 -79 -362 -6 -21 14 -47 26 -57 26 -37 0 -140
61 -187 111 -25 27 -57 73 -70 102 -35 75 -59 223 -59 357 0 113 1 116 33 167
19 29 41 76 50 105 l17 53 195 66 c107 36 207 71 222 77 42 18 159 96 181 120
11 12 24 22 31 22 7 0 27 -29 45 -65z m-828 23 c-12 -12 -24 -19 -28 -16 -3 4
4 16 16 28 12 12 24 19 28 16 3 -4 -4 -16 -16 -28z m228 17 c0 -8 -7 -15 -15
-15 -8 0 -15 7 -15 15 0 8 7 15 15 15 8 0 15 -7 15 -15z m898 2 c14 -9 17 -67
3 -67 -5 0 -12 6 -14 13 -3 6 -6 4 -6 -7 -1 -18 -2 -18 -21 -1 -11 10 -20 30
-20 45 0 20 5 26 23 25 12 0 28 -4 35 -8z m-221 -17 c160 -72 289 -218 348
-394 l24 -71 -24 -8 c-19 -6 -25 -16 -25 -36 0 -26 -29 -126 -35 -119 -1 2 -5
38 -9 81 -6 75 -5 78 14 72 29 -9 24 8 -10 33 -29 22 -72 87 -85 129 l-6 23
43 -25 c24 -14 47 -25 51 -25 18 0 -8 22 -94 81 -94 65 -198 169 -237 238 -26
47 -19 50 45 21z m-737 -5 c-11 -13 -10 -15 6 -9 13 4 9 -3 -11 -20 -22 -19
-32 -22 -42 -14 -27 22 -6 58 35 58 21 0 23 -2 12 -15z m1036 -30 c19 -29 11
-45 -23 -45 -21 0 -23 3 -14 14 10 12 8 13 -10 9 -17 -5 -20 -3 -14 8 27 46
38 49 61 14z m-1166 -10 c13 -16 6 -35 -15 -35 -18 0 -26 15 -19 34 8 20 18
20 34 1z m-89 -32 c-12 -20 -14 -14 -5 12 4 9 9 14 11 11 3 -2 0 -13 -6 -23z
m1189 -9 c0 -17 -22 -14 -28 4 -2 7 3 12 12 12 9 0 16 -7 16 -16z m-1161 -45
c-19 -12 -21 -5 -7 27 11 29 12 29 16 5 2 -13 -2 -27 -9 -32z m1231 16 c10
-13 4 -65 -8 -65 -9 0 -52 43 -52 52 0 5 5 6 11 2 7 -4 9 0 5 14 -6 17 -3 19
13 15 11 -3 25 -11 31 -18z m375 -362 c28 -9 54 -19 60 -24 14 -14 -26 -11
-81 6 -27 8 -74 15 -103 15 -33 0 -51 4 -45 9 24 23 82 21 169 -6z m-1553 -80
c-4 -86 -4 -87 -19 -59 -8 16 -18 53 -22 82 -8 54 -5 58 34 63 6 1 9 -32 7
-86z m-70 35 c2 -15 -5 -30 -19 -41 -13 -10 -23 -28 -22 -40 l0 -22 11 23 c6
12 17 22 25 22 18 0 33 -41 22 -62 -5 -9 -9 -28 -9 -41 0 -28 34 -76 46 -65 4
5 0 16 -9 26 -18 20 -23 57 -8 67 5 3 13 0 17 -6 9 -16 35 -191 29 -197 -3 -3
-16 0 -29 6 -18 8 -40 43 -75 117 -60 124 -65 171 -26 210 30 31 43 31 47 3z
m1342 -4 c29 -28 21 -107 -19 -181 -19 -36 -35 -72 -35 -79 0 -20 -50 -74 -69
-74 -16 0 -16 6 -1 95 8 52 21 100 28 107 19 19 16 -52 -5 -74 -9 -10 -12 -18
-6 -18 12 0 39 29 45 50 3 8 1 30 -4 48 -16 59 20 103 42 50 8 -22 9 -22 9 4
1 18 -6 31 -19 38 -26 14 -27 50 -1 50 11 0 27 -7 35 -16z m130 -187 c23 -38
29 -61 32 -119 l4 -73 -16 70 c-8 39 -28 94 -44 123 -35 65 -16 64 24 -1z
m-1686 -446 l21 -11 -26 -49 -25 -50 33 -71 32 -71 -39 -32 c-21 -18 -57 -51
-79 -75 l-40 -42 -75 61 c-41 33 -79 65 -84 69 -5 5 5 38 23 75 36 79 38 99
10 144 -23 38 -18 49 33 62 44 11 189 4 216 -10z m576 -24 c-12 -33 78 -179
194 -313 l69 -80 -23 -27 c-13 -15 -25 -27 -28 -27 -9 0 -157 230 -199 310
-46 86 -64 141 -52 160 9 15 46 -7 39 -23z m-108 -5 c-21 -41 -95 -132 -106
-132 -22 0 -7 25 51 91 34 38 63 69 65 69 3 0 -2 -13 -10 -28z m714 3 c0 -50
-137 -286 -275 -474 l-47 -64 -24 29 c-29 36 -29 46 -3 70 85 75 293 357 305
413 10 45 13 51 29 51 9 0 15 -9 15 -25z m1161 13 c1 -7 1 -21 0 -30 -2 -11 5
-18 16 -18 31 -1 103 -38 103 -54 0 -17 -77 -36 -145 -36 -68 0 -145 19 -145
36 0 19 85 58 111 51 15 -4 17 -2 9 13 -6 10 -7 26 -4 34 7 19 53 22 55 4z
m-1639 -50 c58 -30 70 -33 158 -33 88 0 100 3 158 33 34 17 64 32 66 32 9 0
-13 -79 -29 -105 -27 -42 -126 -172 -167 -219 l-34 -39 -76 94 c-108 133 -148
197 -148 236 0 18 2 33 5 33 2 0 33 -15 67 -32z m1349 -107 l45 -39 32 38 c31
38 31 38 69 24 47 -16 169 -18 230 -2 l47 11 32 -37 c39 -45 59 -119 49 -181
l-6 -45 -77 0 c-43 0 -88 -6 -102 -13 -23 -12 -25 -18 -22 -71 l2 -57 -67 3
c-62 3 -68 5 -65 23 16 96 18 116 13 123 -13 20 -55 33 -119 39 -37 3 -72 10
-79 15 -7 5 -18 35 -24 65 -7 31 -23 71 -36 90 -28 41 -28 40 -5 46 33 9 40 7
83 -32z m598 13 c48 -61 35 -142 -32 -199 -22 -19 -44 -35 -48 -35 -16 0 5 39
31 59 37 27 56 85 41 124 -14 36 -49 50 -78 31 -18 -11 -23 -11 -33 0 -8 11
-6 18 12 30 35 25 83 20 107 -10z m-2375 -81 c-22 -81 -54 -259 -69 -381 l-7
-52 -48 40 -49 41 5 52 c10 88 33 220 49 275 14 46 22 55 68 82 29 16 57 30
63 30 7 0 2 -32 -12 -87z m1212 56 c43 -24 55 -37 64 -67 33 -120 60 -349 60
-515 l0 -98 -49 48 -48 48 -7 85 c-12 151 -64 443 -91 513 -10 25 10 21 71
-14z m-1754 -136 c94 -75 165 -139 159 -141 -6 -2 -29 11 -51 28 -22 18 -47
33 -55 34 -8 1 -18 6 -22 11 -4 4 -1 5 7 0 20 -11 6 3 -52 49 -26 21 -55 39
-65 41 -10 1 -17 7 -16 13 2 10 -50 56 -87 77 -13 8 -13 7 -1 -11 14 -18 14
-18 -3 -2 -18 16 -15 38 5 38 6 0 87 -62 181 -137z m2886 125 c19 -19 14 -82
-9 -112 -27 -34 -39 -33 -39 3 0 15 -5 42 -11 60 -8 24 -8 35 1 46 15 18 42
19 58 3z m-3118 -17 c0 -10 16 -31 36 -46 28 -22 33 -30 23 -37 -10 -7 -9 -8
5 -4 23 8 88 -33 82 -51 -3 -7 1 -10 9 -6 15 5 33 -23 22 -34 -3 -3 -48 22
-99 56 -50 33 -99 61 -107 61 -23 0 -51 -31 -51 -56 0 -15 12 -30 36 -45 24
-14 32 -24 24 -29 -7 -5 -2 -7 13 -7 29 0 147 -70 147 -87 0 -17 -80 -91 -120
-112 -45 -23 -184 -31 -244 -14 -65 18 -135 76 -168 139 -31 58 -40 133 -14
111 29 -24 124 -41 246 -45 l125 -4 -124 9 c-139 11 -226 32 -240 58 -5 10
-12 34 -16 55 -11 58 13 76 130 101 11 2 80 4 153 5 123 1 132 0 132 -18z
m616 -68 c-4 -10 -32 -36 -62 -58 -31 -22 -69 -56 -85 -75 -22 -26 -32 -31
-40 -23 -19 19 37 78 140 149 50 34 56 35 47 7z m1544 -23 c114 -77 198 -195
345 -486 52 -104 117 -229 144 -279 54 -97 82 -185 80 -250 -1 -37 -2 -35 -16
25 -8 36 -21 85 -30 110 -16 47 -103 199 -112 198 -30 -3 -61 39 -39 53 6 4 3
19 -7 39 -15 29 -18 31 -27 16 -9 -17 -11 -17 -29 0 -19 17 -28 71 -10 59 36
-22 -2 65 -105 242 -70 119 -98 152 -115 136 -7 -7 -21 -13 -32 -13 -28 0 -17
34 13 39 l25 4 -25 6 c-14 4 -31 18 -37 33 -7 14 -30 37 -52 51 -21 14 -41 35
-44 46 -6 24 -7 24 73 -29z m-2032 -95 c78 -49 141 -93 142 -97 0 -10 -32 -10
-54 -2 -9 3 -13 10 -10 15 3 5 -2 6 -10 3 -9 -3 -21 4 -30 18 -19 29 -90 71
-101 60 -5 -4 -4 -1 0 7 6 11 4 13 -8 8 -10 -4 -16 -2 -14 5 1 6 -4 13 -12 16
-9 3 -11 0 -6 -8 5 -9 4 -11 -4 -6 -6 4 -8 12 -5 18 5 7 1 9 -9 5 -10 -4 -16
-2 -14 6 1 7 -5 12 -13 11 -9 -1 -17 8 -17 18 -1 11 4 18 11 16 7 -2 76 -43
154 -93z m2565 15 c53 -25 32 -37 -92 -49 -104 -11 -248 1 -270 23 -19 19 -11
27 36 37 58 12 293 4 326 -11z m-2432 -42 c56 -42 70 -58 49 -58 -16 0 -120
79 -120 90 0 16 10 12 71 -32z m2809 1 l32 -12 -7 -76 c-4 -48 -13 -85 -24
-101 -24 -33 -88 -47 -141 -31 -55 16 -72 51 -68 143 3 67 5 73 28 79 41 11
144 10 180 -2z m-2200 -26 c0 -20 -19 -53 -31 -53 -15 0 -28 43 -18 62 10 19
49 13 49 -9z m1847 -9 c-15 -92 -94 -154 -197 -154 l-55 0 -52 84 c-29 46 -53
86 -53 88 0 2 30 1 68 -4 70 -9 199 -3 249 12 44 13 46 12 40 -26z m-822 -5
c9 -26 -3 -59 -21 -59 -16 0 -38 46 -31 65 8 19 46 15 52 -6z m380 -13 c0 -12
-8 -20 -22 -22 -24 -4 -27 3 -17 31 9 22 39 15 39 -9z m-1475 -16 c11 -20 6
-40 -9 -40 -19 0 -42 27 -35 43 8 23 31 22 44 -3z m-236 -6 c11 -29 6 -33 -24
-16 -16 9 -30 20 -30 25 0 14 48 7 54 -9z m364 -18 c-2 -16 -10 -21 -33 -21
-38 0 -47 31 -13 44 31 12 50 3 46 -23z m-431 -10 c56 -28 78 -50 68 -67 -9
-13 -40 -8 -117 20 l-57 21 -66 -21 c-36 -12 -65 -26 -65 -32 0 -5 10 -6 23
-3 105 30 109 30 188 -3 85 -35 130 -74 111 -93 -9 -9 -28 -7 -80 10 -77 25
-122 27 -188 11 -64 -17 -41 -31 34 -21 66 9 128 -4 210 -47 61 -31 55 -46
-15 -35 -70 10 -178 11 -217 1 -46 -13 -22 -20 55 -18 82 2 186 -16 172 -30
-6 -6 -37 -14 -69 -18 -74 -11 -144 -31 -144 -43 0 -4 10 -8 21 -8 18 0 19 -2
9 -15 -18 -21 0 -19 24 4 12 10 42 22 69 25 44 7 47 6 47 -16 -1 -35 -36 -105
-59 -118 -27 -14 -27 -30 0 -23 21 6 21 5 14 -143 -9 -167 -23 -215 -94 -309
-43 -56 -95 -92 -107 -74 -22 36 -46 167 -51 281 -5 118 -4 133 21 213 25 80
28 85 47 74 29 -15 33 -6 10 22 -32 41 -101 192 -101 220 0 15 -4 39 -10 53
-7 20 -5 37 11 74 12 26 25 54 28 62 4 8 36 30 71 48 77 39 128 38 207 -2z
m1461 6 c3 -18 -2 -22 -22 -22 -28 0 -34 18 -14 38 17 17 32 10 36 -16z
m-1122 -19 c-10 -10 -19 5 -10 18 6 11 8 11 12 0 2 -7 1 -15 -2 -18z m1005 17
c25 -14 24 -29 -3 -39 -31 -12 -58 3 -51 29 6 22 24 25 54 10z m-1026 -30 c8
-12 -20 -60 -35 -60 -5 0 -12 10 -16 22 -9 30 35 64 51 38z m1085 0 c0 -5 -7
-10 -15 -10 -8 0 -15 5 -15 10 0 6 7 10 15 10 8 0 15 -4 15 -10z m-1029 -10
c26 -14 25 -55 -1 -57 -23 -2 -43 28 -34 51 7 19 9 19 35 6z m1007 -34 c5 -26
-9 -35 -37 -25 -23 9 -23 10 -6 29 21 23 38 21 43 -4z m72 8 c11 -12 10 -18
-3 -31 -13 -13 -19 -14 -31 -3 -22 18 -20 50 3 50 10 0 24 -7 31 -16z m-1215
-145 c77 -62 142 -113 144 -115 2 -2 2 -6 0 -8 -4 -4 -257 189 -289 220 -8 8
-10 14 -4 14 5 0 73 -50 149 -111z m1855 102 c0 -16 -94 -21 -110 -5 -12 12
-6 14 48 14 34 0 62 -4 62 -9z m-2705 -16 c22 0 57 3 78 7 47 9 52 -15 6 -31
-70 -24 -219 -7 -219 25 0 11 10 12 48 6 26 -4 65 -7 87 -7z m1974 -5 c45 -22
76 -68 84 -123 l6 -38 -32 6 c-18 4 -71 22 -119 41 -48 19 -90 34 -92 34 -3 0
-17 5 -32 10 l-27 11 24 26 c50 54 123 67 188 33z m-429 -10 c0 -5 9 -14 19
-20 15 -7 24 -6 36 6 15 15 17 15 34 0 10 -9 35 -16 59 -16 73 0 45 -15 -31
-16 -48 -1 -90 -9 -127 -24 -30 -12 -52 -18 -48 -14 10 10 -11 34 -29 34 -11
0 -13 -7 -8 -29 5 -23 0 -34 -31 -65 -28 -28 -39 -34 -45 -24 -5 7 -7 19 -4
26 3 8 5 22 5 33 0 13 7 19 24 19 18 0 25 7 30 30 5 25 10 30 35 30 20 0 34 7
41 20 11 20 40 28 40 10z m1610 -1 c0 -17 -64 -24 -107 -13 -41 11 -24 19 42
19 36 0 65 -3 65 -6z m-1955 -23 c12 -6 37 -27 57 -47 58 -59 180 -257 167
-272 -2 -2 1 -10 8 -18 14 -17 8 -28 -29 -51 -15 -10 -29 -31 -33 -48 -4 -16
-13 -30 -20 -30 -7 0 -20 -2 -28 -5 -11 -5 -15 13 -21 92 -10 149 -7 143 -80
142 -33 -1 -90 -4 -126 -8 l-65 -6 4 -117 c2 -65 1 -118 -1 -118 -22 0 -128
45 -155 66 -27 21 -32 30 -27 52 9 42 36 115 52 139 13 21 16 22 42 8 37 -19
60 -19 60 0 0 8 6 24 13 36 10 18 9 23 -15 44 -16 13 -28 27 -28 31 0 14 65
93 78 94 6 0 12 4 12 9 0 12 79 29 100 22 8 -3 24 -10 35 -15z m205 -16 c0 -6
-28 -10 -64 -10 -36 0 -68 5 -71 10 -4 6 20 10 64 10 41 0 71 -4 71 -10z
m-512 -132 c97 -63 125 -89 45 -42 -134 78 -232 141 -227 147 6 6 27 -6 182
-105z m762 92 c0 -5 -4 -10 -10 -10 -5 0 -10 5 -10 10 0 6 5 10 10 10 6 0 10
-4 10 -10z m90 -5 c0 -8 8 -15 18 -15 14 0 15 2 2 10 -13 9 -13 10 0 10 33 0
58 -12 53 -26 -3 -8 -1 -14 5 -14 6 0 12 4 14 10 2 5 38 -4 82 -21 43 -16 101
-33 130 -36 78 -9 106 -27 106 -68 0 -18 -4 -37 -10 -40 -5 -3 -10 0 -10 8 0
23 -33 45 -83 57 -27 6 -88 26 -137 45 -91 36 -162 57 -192 56 -10 0 -15 6
-12 14 4 8 -3 15 -18 18 -15 3 -10 5 15 6 27 1 37 -3 37 -14z m-786 -10 c-7
-16 -24 -21 -24 -6 0 8 7 13 27 20 1 1 0 -6 -3 -14z m651 5 c3 -5 1 -10 -4
-10 -6 0 -11 5 -11 10 0 6 2 10 4 10 3 0 8 -4 11 -10z m190 -61 c39 -9 113
-32 165 -49 52 -17 106 -35 120 -39 19 -5 26 -14 28 -39 4 -35 0 -37 -27 -22
-10 5 -58 21 -106 35 -94 27 -133 25 -185 -12 -14 -10 -38 -16 -57 -14 -17 1
-51 -6 -75 -16 -43 -19 -47 -19 -167 2 -30 6 -81 47 -81 66 0 14 90 70 143 90
64 23 147 22 242 -2z m326 1 l24 -20 -32 11 c-18 6 -33 15 -33 20 0 15 16 10
41 -11z m-1356 4 c14 -6 14 -9 -3 -28 -11 -11 -27 -34 -35 -51 l-16 -30 -1 44
c0 30 5 48 18 57 21 16 17 15 37 8z m32 -73 c-76 -91 -26 -213 114 -276 142
-64 455 -96 738 -76 356 25 525 100 539 239 2 28 -1 66 -8 87 -18 55 -3 55 21
0 24 -54 21 -120 -6 -162 -9 -13 -13 -28 -10 -33 3 -5 0 -12 -6 -16 -8 -5 -9
-3 -4 6 5 8 4 11 -3 6 -6 -4 -9 -13 -6 -20 5 -12 -17 -29 -41 -31 -24 -2 -144
-59 -139 -66 2 -4 -4 -13 -15 -19 -25 -13 -240 -50 -292 -50 -21 0 -39 -4 -39
-10 0 -14 257 18 317 41 27 10 42 -7 22 -26 -15 -13 -146 -40 -244 -50 -33 -3
-75 -8 -92 -11 l-33 -5 0 46 c0 33 -4 45 -15 45 -12 0 -15 -19 -15 -115 l0
-115 -148 0 c-356 0 -601 69 -656 184 -21 45 -42 350 -26 390 18 48 51 89 63
77 7 -7 2 -20 -16 -40z m-517 -26 c-23 -54 -65 -120 -102 -164 -18 -20 -26
-36 -20 -40 7 -4 -1 -32 -19 -73 -16 -37 -33 -87 -38 -110 -7 -39 -5 -46 16
-61 13 -10 23 -26 23 -35 0 -12 -8 -9 -32 15 l-32 33 12 72 c12 73 35 126 147
335 28 53 52 88 56 81 4 -6 -1 -30 -11 -53z m2288 9 c18 -13 21 -19 11 -30 -6
-8 -24 -14 -40 -14 -23 0 -27 4 -26 23 1 20 13 36 27 37 3 0 16 -7 28 -16z
m53 -17 c-13 -13 -26 -3 -16 12 3 6 11 8 17 5 6 -4 6 -10 -1 -17z m-627 -43
c93 -31 116 -51 116 -99 0 -31 -5 -37 -52 -65 -66 -37 -78 -38 -78 -1 0 69
-40 110 -128 132 -52 14 -59 23 -30 43 32 23 82 20 172 -10z m621 5 c10 -15
-3 -59 -18 -59 -6 0 -18 4 -26 9 -12 8 -13 14 -3 35 12 27 36 34 47 15z m-792
-49 c114 -36 129 -51 125 -116 l-3 -49 -85 -17 -85 -17 -76 24 c-67 23 -76 29
-87 58 -26 71 -17 91 54 127 50 25 48 25 157 -10z m-290 13 c-7 -2 -19 -2 -25
0 -7 3 -2 5 12 5 14 0 19 -2 13 -5z m-28 -33 c18 -8 17 -9 -7 -9 -15 -1 -30 4
-33 9 -7 12 12 12 40 0z m-1197 -34 c-6 -15 -41 -57 -77 -94 -35 -37 -61 -60
-56 -52 38 66 133 185 142 177 2 -3 -2 -17 -9 -31z m1217 -8 c14 -6 25 -16 25
-22 0 -6 -5 -5 -12 2 -7 7 -20 12 -30 12 -20 0 -100 -39 -110 -54 -5 -8 -8 -7
-8 1 0 13 78 73 96 73 7 0 25 -5 39 -12z m769 -109 c17 -13 28 -34 32 -60 7
-41 24 -54 24 -17 0 21 1 21 30 -7 16 -16 39 -53 50 -83 20 -52 48 -267 37
-278 -15 -15 -211 111 -201 129 4 7 15 23 24 37 10 14 21 36 25 50 6 18 -7 9
-46 -34 -72 -79 -124 -116 -163 -115 l-31 0 34 12 c19 7 36 17 38 23 3 8 -22
5 -72 -7 -60 -14 -88 -16 -133 -8 -31 5 -58 9 -59 9 -2 0 -3 4 -3 9 0 4 27 14
61 21 115 25 230 95 265 161 9 18 23 29 35 29 11 0 17 5 14 10 -3 6 -28 10
-56 10 -47 0 -89 23 -89 49 0 17 31 34 83 46 29 7 51 17 50 24 -4 18 22 13 51
-10z m-615 -25 c2 -2 -10 -4 -27 -4 -18 0 -32 5 -32 10 0 9 47 4 59 -6z m860
1 c42 -15 134 -75 127 -82 -2 -3 -15 2 -28 11 -43 28 -140 56 -197 56 -33 1
-64 7 -75 15 -18 14 -13 15 56 15 41 0 94 -7 117 -15z m-563 -138 c-5 -22 -16
-26 -93 -41 -49 -10 -117 -21 -153 -25 -39 -5 -51 -9 -30 -10 19 0 78 6 130
14 115 18 123 18 115 4 -12 -18 -53 -28 -178 -44 -168 -21 -157 -23 -157 30 0
29 4 45 13 45 43 0 270 32 307 43 25 8 47 12 49 11 2 -2 1 -14 -3 -27z m-1782
7 c21 -8 20 -33 -1 -56 -24 -26 -33 -22 -33 15 0 44 7 52 34 41z m1821 -4 c-3
-5 -12 -10 -18 -10 -7 0 -6 4 3 10 19 12 23 12 15 0z m22 -36 c-3 -3 -12 -4
-19 -1 -8 3 -5 6 6 6 11 1 17 -2 13 -5z m68 -4 c6 -10 -73 -55 -83 -46 -3 3 1
6 8 6 7 0 10 3 6 7 -4 4 8 15 26 25 40 21 36 20 43 8z m-1858 -28 c7 -4 11
-16 9 -27 -3 -25 -48 -32 -65 -11 -10 11 -8 17 11 30 25 18 28 19 45 8z m2487
2 c9 -3 16 -12 16 -19 0 -18 -28 -45 -46 -45 -17 0 -19 41 -2 58 14 14 12 14
32 6z m-68 -30 c21 -30 5 -56 -23 -38 -29 18 -40 43 -23 54 22 14 28 12 46
-16z m-736 -13 c32 -9 -107 -37 -232 -47 -74 -6 -88 -4 -88 8 0 12 27 17 127
27 70 7 130 14 132 17 6 5 31 4 61 -5z m760 -41 c0 -5 -5 -10 -11 -10 -5 0 -7
5 -4 10 3 6 8 10 11 10 2 0 4 -4 4 -10z m-34 -12 c4 -6 -3 -19 -16 -30 -28
-22 -36 -23 -44 -1 -12 30 44 58 60 31z m-823 -25 c-7 -2 -19 -2 -25 0 -7 3
-2 5 12 5 14 0 19 -2 13 -5z m-941 -53 c85 -20 264 -43 421 -55 87 -7 109 -17
62 -29 -57 -14 -469 33 -548 63 -15 6 -27 17 -27 26 0 18 -8 19 92 -5z m1196
-25 c13 -11 -263 -49 -425 -60 -78 -5 -93 -3 -93 9 0 16 13 19 215 36 72 7
148 15 170 19 34 7 123 4 133 -4z m-626 -12 c17 -15 25 -43 13 -43 -7 0 -85
52 -85 56 0 12 56 1 72 -13z m66 5 c7 -7 12 -27 12 -45 0 -27 -5 -35 -26 -43
-35 -14 -36 -13 -23 11 6 12 9 37 6 55 -6 36 8 45 31 22z m-68 -68 c0 -16 -46
-34 -67 -26 -16 7 -16 9 7 21 30 17 60 19 60 5z"/>
<path d="M2480 5256 c0 -8 -6 -16 -12 -18 -7 -3 -3 -7 8 -10 17 -4 20 -1 16
18 -5 26 -12 32 -12 10z"/>
<path d="M2440 5242 c0 -10 -25 -42 -56 -72 l-56 -55 5 40 c4 39 3 41 -23 40
-28 0 -31 -19 -4 -29 20 -8 18 -63 -6 -148 -24 -86 -52 -119 -149 -171 l-70
-38 6 50 c5 48 5 50 -17 44 -15 -4 -18 -8 -9 -13 18 -12 5 -85 -25 -130 -23
-36 -28 -38 -64 -33 -31 4 -40 2 -46 -12 -5 -15 -4 -16 8 -6 24 20 60 9 66
-19 4 -20 11 -25 37 -25 17 0 29 3 26 7 -2 5 -13 8 -23 8 -18 0 -17 4 9 48 22
35 47 57 98 87 76 44 153 110 153 131 0 7 12 21 26 30 24 16 27 16 61 0 33
-16 35 -16 23 -1 -11 14 -11 18 -1 25 11 6 10 10 -4 17 -16 9 -15 12 6 27 13
9 18 16 10 16 -7 0 -25 -13 -39 -28 -30 -32 -72 -58 -72 -44 0 42 37 116 85
172 46 53 70 100 50 100 -3 0 -5 -8 -5 -18z"/>
<path d="M4030 5219 c0 -5 5 -7 10 -4 6 3 10 8 10 11 0 2 -4 4 -10 4 -5 0 -10
-5 -10 -11z"/>
<path d="M4266 5083 c-6 -14 -5 -15 5 -6 7 7 10 15 7 18 -3 3 -9 -2 -12 -12z"/>
<path d="M2039 5073 c-13 -16 -12 -17 4 -4 9 7 17 15 17 17 0 8 -8 3 -21 -13z"/>
<path d="M2071 5087 c2 -1 13 -9 24 -17 19 -14 19 -14 6 3 -7 9 -18 17 -24 17
-6 0 -8 -1 -6 -3z"/>
<path d="M2476 5037 c3 -10 9 -15 12 -12 3 3 0 11 -7 18 -10 9 -11 8 -5 -6z"/>
<path d="M1990 5020 c-9 -6 -10 -10 -3 -10 6 0 15 5 18 10 8 12 4 12 -15 0z"/>
<path d="M2070 4991 c0 -6 5 -13 10 -16 6 -3 10 1 10 9 0 9 -4 16 -10 16 -5 0
-10 -4 -10 -9z"/>
<path d="M2153 4960 c2 -34 1 -35 -32 -33 -24 1 -30 -1 -20 -8 40 -25 77 4 61
48 -11 28 -11 28 -9 -7z"/>
<path d="M2450 4970 c-9 -6 -10 -10 -3 -10 6 0 15 5 18 10 8 12 4 12 -15 0z"/>
<path d="M4379 4943 c-13 -16 -12 -17 4 -4 16 13 21 21 13 21 -2 0 -10 -8 -17
-17z"/>
<path d="M2020 4931 c0 -11 4 -22 9 -25 4 -3 6 6 3 19 -5 30 -12 33 -12 6z"/>
<path d="M4430 4945 c0 -5 5 -17 10 -25 5 -8 10 -10 10 -5 0 6 -5 17 -10 25
-5 8 -10 11 -10 5z"/>
<path d="M4340 4906 c0 -2 9 -6 20 -9 11 -3 18 -1 14 4 -5 9 -34 13 -34 5z"/>
<path d="M4400 4850 c0 -5 5 -10 10 -10 6 0 10 5 10 10 0 6 -4 10 -10 10 -5 0
-10 -4 -10 -10z"/>
<path d="M1837 4820 c-3 -11 -1 -23 4 -26 5 -3 9 6 9 20 0 31 -6 34 -13 6z"/>
<path d="M4478 4803 c5 -23 7 -25 10 -8 2 11 9 23 16 27 6 5 3 8 -10 8 -18 0
-20 -4 -16 -27z"/>
<path d="M4545 4820 c-25 -6 -26 -8 -7 -9 12 0 25 -8 28 -16 5 -11 9 -11 19
-2 12 11 10 38 -4 36 -3 -1 -19 -5 -36 -9z"/>
<path d="M4639 4818 c7 -10 11 -25 7 -33 -3 -9 -2 -13 4 -10 15 10 12 31 -7
46 -16 13 -17 12 -4 -3z"/>
<path d="M4330 4791 c0 -10 39 -46 43 -40 2 2 -7 14 -20 26 -13 12 -23 19 -23
14z"/>
<path d="M4396 4772 c-2 -4 4 -8 14 -8 10 0 16 4 14 8 -3 4 -9 8 -14 8 -5 0
-11 -4 -14 -8z"/>
<path d="M1840 4747 c6 -16 15 -38 22 -50 7 -12 11 -25 10 -29 -1 -4 5 -5 12
-2 12 4 10 12 -7 39 -12 18 -28 41 -34 51 -11 16 -11 15 -3 -9z"/>
<path d="M4450 4760 c-9 -6 -10 -10 -3 -10 6 0 15 5 18 10 8 12 4 12 -15 0z"/>
<path d="M2280 4695 c-7 -9 -11 -17 -9 -20 3 -2 10 5 17 15 14 24 10 26 -8 5z"/>
<path d="M4106 4683 c-6 -14 -5 -15 5 -6 7 7 10 15 7 18 -3 3 -9 -2 -12 -12z"/>
<path d="M4281 4668 c-1 -22 5 -28 33 -38 20 -6 44 -25 58 -45 12 -19 29 -35
37 -35 8 0 2 9 -13 21 -14 11 -26 29 -26 40 0 10 -7 19 -15 19 -28 0 -64 23
-68 44 -3 17 -5 16 -6 -6z"/>
<path d="M2332 4650 c-12 -20 -39 -18 -54 4 -4 6 -8 -7 -8 -29 0 -22 -9 -55
-20 -73 -17 -27 -24 -31 -47 -26 l-28 6 29 -16 c15 -9 29 -16 30 -16 2 0 13
22 26 49 12 27 33 55 47 62 14 7 29 22 35 32 13 25 5 31 -10 7z"/>
<path d="M4119 4647 c6 -8 7 -18 3 -22 -4 -5 -1 -5 6 -1 10 6 10 11 1 22 -6 8
-14 14 -16 14 -3 0 0 -6 6 -13z"/>
<path d="M1851 4634 c0 -12 7 -28 17 -35 15 -12 16 -12 6 1 -7 8 -14 24 -17
35 -4 19 -5 19 -6 -1z"/>
<path d="M2071 4635 c0 -12 -5 -26 -11 -33 -5 -7 -3 -6 6 2 9 7 14 22 11 32
-4 17 -5 17 -6 -1z"/>
<path d="M4254 4625 c-3 -8 -4 -20 -2 -27 3 -7 7 -1 10 15 6 29 1 36 -8 12z"/>
<path d="M4409 4605 c18 -8 38 -15 45 -15 6 1 -4 7 -23 15 -18 8 -38 15 -45
15 -6 -1 4 -7 23 -15z"/>
<path d="M4120 4606 c0 -2 8 -10 18 -17 15 -13 16 -12 3 4 -13 16 -21 21 -21
13z"/>
<path d="M1886 4574 c-10 -26 -7 -46 9 -58 14 -10 12 -20 -15 -85 -37 -90 -70
-145 -81 -134 -4 4 -9 26 -12 48 -3 29 -4 22 -5 -24 -2 -58 -6 -69 -41 -116
-32 -42 -126 -125 -142 -125 -2 0 -2 32 -1 71 3 61 1 74 -16 90 -17 15 -21 16
-26 3 -3 -8 -2 -13 3 -9 16 9 22 -47 12 -102 -18 -95 -33 -115 -155 -217
l-116 -98 0 -64 0 -65 69 79 c148 167 256 220 422 206 72 -6 79 -9 73 -26 -5
-16 -3 -16 18 4 23 23 23 23 3 32 -11 6 -22 11 -24 13 -8 6 62 73 75 73 23 0
63 22 69 38 5 13 3 13 -13 -1 -23 -21 -32 -22 -32 -2 0 8 -6 12 -14 9 -8 -3
-16 2 -19 13 -3 10 -5 2 -6 -19 -1 -30 -8 -42 -42 -69 -41 -32 -42 -33 -155
-33 -63 -1 -114 1 -114 4 0 3 27 25 60 50 33 25 84 78 115 118 63 82 95 106
175 128 30 8 73 21 94 29 27 10 42 12 46 4 4 -5 7 4 8 22 0 18 -8 43 -19 57
-10 14 -19 20 -19 15 0 -5 5 -14 11 -20 19 -19 2 -31 -58 -43 -31 -7 -74 -18
-95 -26 -21 -7 -38 -11 -38 -8 0 16 55 161 65 172 10 11 16 11 33 1 17 -10 24
-11 33 -2 9 9 7 11 -9 6 -14 -3 -25 2 -33 15 -12 20 -13 20 -30 -2 -25 -29
-55 -11 -53 33 2 34 -1 39 -10 15z"/>
<path d="M2152 4518 c-7 -7 -12 -18 -12 -24 0 -7 -12 -14 -27 -16 -14 -2 -28
-10 -30 -18 -4 -12 -3 -13 5 -1 6 8 20 12 36 9 22 -4 26 -2 26 16 0 12 5 27
12 34 7 7 10 12 7 12 -3 0 -10 -5 -17 -12z"/>
<path d="M1780 4463 c0 -15 19 -37 26 -31 3 4 -1 14 -10 23 -9 9 -16 13 -16 8z"/>
<path d="M2171 4417 c-1 -21 21 -18 27 4 3 12 2 12 -6 0 -8 -11 -10 -11 -15 0
-4 10 -6 8 -6 -4z"/>
<path d="M1535 4400 c-3 -6 1 -7 9 -4 18 7 21 14 7 14 -6 0 -13 -4 -16 -10z"/>
<path d="M1498 4353 c6 -2 18 -2 25 0 6 3 1 5 -13 5 -14 0 -19 -2 -12 -5z"/>
<path d="M1466 4333 c-4 -10 0 -23 11 -32 15 -15 16 -15 5 0 -7 9 -10 24 -6
33 3 9 4 16 1 16 -3 0 -8 -8 -11 -17z"/>
<path d="M2127 4319 c7 -7 15 -10 18 -7 3 3 -2 9 -12 12 -14 6 -15 5 -6 -5z"/>
<path d="M1642 4298 c-7 -7 -12 -22 -12 -34 0 -12 -5 -25 -10 -27 -6 -3 -5 -4
2 -3 7 1 15 13 16 27 2 13 9 30 14 37 13 15 6 16 -10 0z"/>
<path d="M1491 4259 c-1 -21 24 -43 41 -36 8 3 6 6 -5 6 -10 1 -22 11 -27 24
-6 15 -9 17 -9 6z"/>
<path d="M1935 4160 c-3 -6 1 -7 9 -4 18 7 21 14 7 14 -6 0 -13 -4 -16 -10z"/>
<path d="M2188 4103 c-1 -5 -42 -28 -90 -52 -84 -43 -104 -63 -55 -54 14 3 43
-5 65 -16 57 -29 66 -26 15 5 -24 14 -43 29 -43 34 0 10 63 48 95 56 14 3 25
12 25 20 0 15 -6 19 -12 7z"/>
<path d="M2178 3953 c7 -3 16 -2 19 1 4 3 -2 6 -13 5 -11 0 -14 -3 -6 -6z"/>
<path d="M2031 3914 c0 -11 3 -14 6 -6 3 7 2 16 -1 19 -3 4 -6 -2 -5 -13z"/>
<path d="M1970 3884 c0 -7 -8 -18 -17 -23 -10 -6 -13 -11 -7 -11 6 0 17 6 24
14 6 8 21 16 33 18 19 3 19 4 -5 9 -19 4 -28 2 -28 -7z"/>
<path d="M1910 3870 c0 -5 5 -10 11 -10 5 0 7 5 4 10 -3 6 -8 10 -11 10 -2 0
-4 -4 -4 -10z"/>
<path d="M1642 2853 c59 -2 158 -2 220 0 62 1 14 3 -107 3 -121 0 -172 -2
-113 -3z"/>
<path d="M4443 2853 c15 -2 37 -2 50 0 12 2 0 4 -28 4 -27 0 -38 -2 -22 -4z"/>
<path d="M4695 2853 c96 -7 205 -7 205 0 0 4 -55 6 -122 5 -68 -1 -105 -3 -83
-5z"/>
<path d="M1558 2753 c7 -3 16 -2 19 1 4 3 -2 6 -13 5 -11 0 -14 -3 -6 -6z"/>
<path d="M4528 2753 c7 -3 16 -2 19 1 4 3 -2 6 -13 5 -11 0 -14 -3 -6 -6z"/>
<path d="M3351 5440 c14 -31 19 -36 19 -24 0 6 -7 19 -16 30 -14 18 -14 18 -3
-6z"/>
<path d="M3373 5355 c0 -27 2 -38 4 -22 2 15 2 37 0 50 -2 12 -4 0 -4 -28z"/>
<path d="M2996 5320 c3 -19 10 -42 16 -50 6 -10 7 -3 2 20 -3 19 -10 42 -16
50 -6 10 -7 3 -2 -20z"/>
<path d="M3026 4764 c-43 -29 -180 -94 -238 -113 -21 -7 -40 -16 -43 -21 -14
-23 257 101 305 139 36 29 22 26 -24 -5z"/>
<path d="M2875 4466 c-17 -7 -45 -30 -63 -50 -45 -51 -42 -74 5 -41 29 20 128
45 181 45 36 0 43 3 40 17 -7 39 -102 56 -163 29z m125 -11 c14 -8 23 -15 20
-16 -3 0 -28 -3 -57 -5 -29 -2 -75 -13 -104 -23 l-52 -20 29 30 c44 46 117 61
164 34z"/>
<path d="M3402 4464 c-40 -28 -27 -41 46 -46 44 -3 89 -14 125 -31 62 -28 73
-20 36 27 -46 58 -157 85 -207 50z m133 -13 c22 -10 49 -29 60 -41 l20 -23
-20 8 c-70 28 -96 34 -142 35 -55 0 -69 14 -30 30 34 14 68 11 112 -9z"/>
<path d="M2855 4262 c-70 -43 -71 -83 -2 -52 51 23 117 25 157 5 43 -22 51 1
11 37 -26 23 -40 28 -84 28 -33 0 -63 -7 -82 -18z"/>
<path d="M3409 4265 c-26 -14 -45 -43 -35 -53 3 -2 19 1 37 7 48 17 110 13
152 -8 32 -16 39 -17 44 -5 20 52 -130 96 -198 59z"/>
<path d="M2740 4220 c8 -5 22 -9 30 -9 10 0 8 3 -5 9 -27 12 -43 12 -25 0z"/>
<path d="M3645 4220 c-13 -6 -15 -9 -5 -9 8 0 22 4 30 9 18 12 2 12 -25 0z"/>
<path d="M2740 4180 c-18 -12 -2 -12 25 0 13 6 15 9 5 9 -8 0 -22 -4 -30 -9z"/>
<path d="M3660 4176 c14 -8 27 -12 29 -10 6 6 -1 11 -29 18 l-25 7 25 -15z"/>
<path d="M3085 4050 c-5 -16 9 -60 19 -60 2 0 3 18 3 40 -2 43 -12 52 -22 20z"/>
<path d="M3312 4035 c0 -19 4 -35 9 -35 5 0 9 13 9 29 0 17 -4 32 -9 35 -5 3
-9 -10 -9 -29z"/>
<path d="M3125 4010 c-8 -13 48 -40 83 -40 40 0 97 29 83 43 -7 7 -18 5 -35
-7 -31 -20 -65 -20 -90 -1 -23 17 -33 19 -41 5z"/>
<path d="M2974 3956 c-49 -51 -51 -55 -44 -92 l8 -39 1 36 c1 26 9 43 32 65
25 24 67 85 57 84 -2 -1 -26 -25 -54 -54z"/>
<path d="M3390 4004 c0 -16 43 -74 66 -89 23 -15 25 -21 19 -58 -4 -28 -3 -37
4 -27 5 8 10 29 12 45 2 24 -8 40 -49 82 -29 29 -52 50 -52 47z"/>
<path d="M2993 3907 c-18 -30 114 -77 217 -77 103 0 235 47 217 77 -4 6 -31
-2 -68 -21 -55 -27 -72 -30 -149 -30 -77 0 -94 3 -149 30 -37 19 -64 27 -68
21z"/>
<path d="M3620 4650 c0 -5 10 -15 23 -21 22 -12 22 -12 3 10 -21 23 -26 26
-26 11z"/>
<path d="M2188 3613 c23 -2 59 -2 80 0 20 2 1 4 -43 4 -44 0 -61 -2 -37 -4z"/>
<path d="M3100 3511 c0 -22 22 -101 30 -106 10 -6 -9 98 -21 110 -6 5 -9 4 -9
-4z"/>
<path d="M3296 3491 c-16 -84 -17 -96 -7 -81 12 17 26 98 18 106 -3 3 -8 -8
-11 -25z"/>
<path d="M1455 3373 c14 -14 73 -33 99 -32 12 0 1 6 -24 13 -25 7 -54 17 -65
21 -13 5 -17 5 -10 -2z"/>
<path d="M1655 3330 c44 -5 87 -4 95 1 9 5 -22 8 -80 7 l-95 -1 80 -7z"/>
<path d="M4728 3189 c17 -18 175 -20 193 -2 9 9 1 9 -32 1 -41 -9 -118 -5
-157 9 -14 5 -15 4 -4 -8z"/>
<path d="M3272 2944 c10 -10 20 -16 22 -13 3 3 -5 11 -17 18 -21 13 -21 12 -5
-5z"/>
<path d="M3127 2849 c-3 -13 -1 -19 6 -16 15 5 22 37 9 37 -5 0 -12 -9 -15
-21z"/>
<path d="M2960 2846 c0 -2 7 -9 15 -16 12 -10 15 -10 15 4 0 9 -7 16 -15 16
-8 0 -15 -2 -15 -4z"/>
<path d="M2815 2779 c-4 -6 -5 -13 -2 -16 7 -7 27 6 27 18 0 12 -17 12 -25 -2z"/>
<path d="M3100 2615 c0 -8 5 -15 10 -15 6 0 10 7 10 15 0 8 -4 15 -10 15 -5 0
-10 -7 -10 -15z"/>
<path d="M2697 2584 c-4 -4 -7 -14 -7 -23 0 -11 3 -12 11 -4 6 6 10 16 7 23
-2 6 -7 8 -11 4z"/>
<path d="M3461 2818 c11 -21 18 -22 42 -4 16 13 15 14 -17 18 -31 3 -33 2 -25
-14z"/>
<path d="M2500 2523 c0 -19 72 -75 135 -105 59 -27 150 -50 245 -62 l45 -5
-40 10 c-22 6 -75 19 -119 30 -103 25 -182 62 -228 107 -21 20 -38 31 -38 25z"/>
<path d="M2530 2436 c13 -15 56 -43 95 -62 106 -52 348 -96 510 -92 77 2 78 2
15 5 -278 12 -506 67 -605 145 -37 29 -38 29 -15 4z"/>
<path d="M2519 2393 c26 -49 205 -125 323 -138 39 -4 27 1 -47 19 -122 29
-198 62 -250 107 -30 27 -36 29 -26 12z"/>
<path d="M2540 2326 c74 -83 339 -149 575 -144 74 2 78 2 25 5 -275 12 -485
62 -590 140 l-35 26 25 -27z"/>
<path d="M3215 2330 c-3 -5 -3 -19 0 -31 5 -16 14 -19 38 -17 27 2 32 7 32 28
0 21 -5 26 -32 28 -17 2 -34 -2 -38 -8z"/>
<path d="M2913 2243 c9 -2 23 -2 30 0 6 3 -1 5 -18 5 -16 0 -22 -2 -12 -5z"/>
<path d="M3220 2215 c0 -22 4 -25 35 -25 31 0 35 3 35 25 0 22 -4 25 -35 25
-31 0 -35 -3 -35 -25z"/>
<path d="M2420 1816 c0 -3 16 -31 36 -61 28 -44 40 -56 57 -53 33 5 31 64 -3
89 -25 19 -90 37 -90 25z"/>
<path d="M3119 1788 c0 -2 -1 -35 -2 -75 -1 -40 -8 -78 -14 -84 -8 -8 -42 -12
-88 -12 -63 1 -75 -2 -75 -16 1 -37 57 -81 104 -81 33 0 33 -11 -4 -88 -36
-77 -38 -105 -5 -137 33 -34 55 -31 96 11 39 41 121 84 162 84 39 0 71 -35 62
-68 -3 -15 -13 -37 -21 -49 -19 -30 -103 -77 -176 -100 -32 -10 -58 -21 -58
-25 0 -14 108 -19 170 -8 134 24 200 86 200 188 0 51 -31 97 -82 123 -34 17
-54 21 -108 17 -36 -3 -80 -13 -98 -22 -37 -19 -38 -17 -15 46 l17 47 94 22
c110 25 142 47 119 82 -24 36 -60 43 -118 23 -27 -10 -52 -16 -55 -14 -2 3 0
17 6 32 17 46 12 65 -22 86 -27 16 -86 28 -89 18z"/>
<path d="M2356 1733 c40 -71 61 -90 82 -77 24 16 27 52 5 76 -23 26 -66 48
-93 48 -20 0 -20 -1 6 -47z"/>
<path d="M4209 1769 c-11 -5 -15 -17 -12 -33 5 -26 -34 -119 -154 -364 -71
-144 -74 -155 -63 -183 15 -36 51 -62 72 -54 9 4 33 45 54 92 39 88 93 158
116 151 8 -3 15 -31 19 -79 3 -41 11 -84 19 -95 34 -54 132 -74 197 -41 38 20
79 68 99 115 22 53 38 166 27 187 -8 14 -17 5 -52 -59 -52 -95 -101 -146 -141
-146 -38 0 -50 23 -50 100 0 51 -4 65 -25 85 -28 29 -63 32 -107 9 l-31 -16
33 59 c18 32 50 84 72 117 21 32 38 66 38 75 0 35 -84 96 -111 80z"/>
<path d="M2195 1750 c-3 -5 1 -20 9 -32 18 -25 22 -113 6 -123 -6 -4 -44 -9
-85 -12 -79 -6 -86 -12 -60 -50 19 -27 68 -44 120 -40 l40 2 3 -62 3 -63 -47
0 c-63 0 -109 -24 -129 -67 -15 -31 -15 -40 -3 -70 20 -54 57 -76 133 -81 65
-4 65 -4 105 35 l39 40 27 -29 c36 -37 81 -38 94 -3 17 44 -13 88 -87 130 -31
18 -32 20 -35 103 -2 51 1 86 7 87 6 2 31 10 58 20 42 15 47 20 47 46 0 24 -6
33 -32 43 -21 9 -40 11 -55 5 -22 -8 -23 -6 -23 41 0 41 -4 52 -26 69 -28 22
-98 29 -109 11z m23 -482 c2 -12 -6 -21 -22 -28 -42 -16 -95 18 -69 44 4 4 25
6 48 4 28 -2 41 -8 43 -20z"/>
<path d="M1889 1738 c0 -2 -1 -28 -3 -58 -1 -30 -10 -100 -20 -155 -34 -187
-4 -355 67 -379 40 -14 62 11 59 69 -1 25 5 77 13 116 17 82 18 89 7 89 -5 0
-17 -18 -27 -40 -10 -23 -23 -44 -28 -47 -17 -11 0 168 22 231 12 33 21 70 21
84 0 30 -60 92 -89 92 -12 0 -21 -1 -22 -2z"/>
<path d="M2643 1633 c-9 -3 -10 -10 -2 -24 5 -11 7 -35 3 -54 -6 -35 -6 -35
-60 -35 -30 0 -54 -3 -54 -8 0 -21 34 -52 65 -58 51 -9 47 -39 -15 -92 -74
-64 -90 -142 -40 -192 24 -24 55 -25 95 -4 24 12 34 13 52 3 32 -17 54 4 51
47 -1 22 5 41 19 56 11 13 28 38 39 56 21 36 39 41 54 13 29 -55 -4 -125 -83
-178 -26 -17 -43 -34 -38 -37 17 -11 116 15 154 40 93 61 87 197 -10 242 -21
9 -45 25 -53 34 -22 24 -66 28 -62 6 2 -14 -4 -18 -27 -18 -23 0 -28 4 -24 19
3 13 21 22 58 30 30 7 65 21 77 32 l23 19 -25 21 c-23 20 -34 20 -88 4 -21 -7
-22 -5 -17 18 5 20 2 29 -17 40 -29 19 -59 27 -75 20z m85 -288 c-6 -14 -15
-25 -20 -25 -4 0 -8 11 -8 25 0 18 5 25 20 25 17 0 18 -3 8 -25z m-100 -106
c-22 -14 -48 -10 -48 7 0 9 10 33 22 53 l22 36 9 -44 c7 -33 5 -46 -5 -52z"/>
<path d="M3730 1615 c0 -3 7 -19 15 -35 15 -28 14 -30 -3 -30 -11 0 -39 7 -63
15 -94 33 -119 -6 -75 -116 5 -12 -2 -20 -25 -30 -18 -7 -41 -12 -51 -12 -28
3 -23 -42 8 -66 32 -25 47 -26 79 -5 24 15 25 15 33 -7 5 -13 21 -58 36 -101
29 -80 55 -114 80 -105 33 13 30 55 -12 164 -23 58 -39 109 -37 114 9 14 118
50 144 47 20 -2 27 -9 29 -30 5 -40 -33 -56 -95 -40 -25 7 -48 11 -50 9 -2 -3
8 -18 22 -36 74 -87 215 -47 215 61 0 51 -39 93 -97 102 -35 6 -42 12 -47 36
-3 18 -16 34 -33 43 -37 19 -73 30 -73 22z m0 -90 c17 -9 30 -18 30 -21 0 -5
-63 -34 -74 -34 -7 0 -17 51 -11 60 8 14 21 12 55 -5z"/>
<path d="M2985 1025 c-5 -2 -22 -6 -37 -9 -34 -8 -94 -59 -114 -97 -21 -41
-18 -132 6 -179 49 -96 187 -128 282 -65 21 14 38 29 38 33 0 5 -13 21 -29 36
l-30 28 -27 -21 c-99 -78 -214 71 -124 161 27 27 36 30 71 25 22 -3 49 -13 60
-23 19 -17 21 -16 49 11 29 27 29 29 12 48 -9 10 -28 25 -42 32 -27 13 -98 26
-115 20z"/>
<path d="M2050 836 l0 -186 123 0 c138 0 182 14 206 64 17 36 1 100 -30 116
-20 11 -20 11 1 37 22 29 25 60 9 96 -20 43 -46 51 -181 55 l-128 4 0 -186z
m218 92 c32 -27 -5 -58 -69 -58 l-49 0 0 34 c0 24 5 36 18 39 23 7 84 -2 100
-15z m12 -143 c30 -37 -4 -62 -87 -64 l-43 -1 0 40 0 40 59 0 c39 0 63 -5 71
-15z"/>
<path d="M2532 968 c-11 -29 -45 -113 -76 -185 l-55 -133 50 0 c48 0 51 2 65
35 l14 35 75 0 75 0 14 -35 c14 -34 17 -35 66 -35 29 0 50 3 48 8 -1 4 -37 87
-78 184 l-75 178 -51 0 -51 0 -21 -52z m97 -115 l21 -53 -45 0 c-25 0 -45 2
-45 4 0 2 6 19 14 37 7 19 16 43 20 53 8 24 10 22 35 -41z"/>
<path d="M3210 835 l0 -185 50 0 50 0 0 75 0 75 65 0 65 0 0 -75 0 -75 50 0
50 0 0 185 0 185 -50 0 -50 0 0 -70 0 -70 -65 0 -65 0 0 70 0 70 -50 0 -50 0
0 -185z"/>
<path d="M3727 1013 c-8 -13 -147 -351 -147 -357 0 -3 22 -6 49 -6 48 0 50 1
61 35 l12 35 78 0 78 0 12 -35 c11 -34 13 -35 64 -35 l53 0 -78 183 -78 182
-50 3 c-27 2 -51 -1 -54 -5z m76 -152 c9 -27 17 -51 17 -55 0 -3 -18 -6 -40
-6 -22 0 -40 3 -40 8 0 14 34 102 40 102 3 0 13 -22 23 -49z"/>
<path d="M4020 835 l0 -185 50 0 49 0 3 97 3 96 75 -96 c74 -96 75 -97 117
-97 l43 0 0 185 0 185 -50 0 -49 0 -3 -96 -3 -96 -75 96 c-73 95 -75 96 -117
96 l-43 0 0 -185z"/>
<path d="M2397 523 c-4 -3 -7 -46 -7 -95 l0 -88 65 0 c52 0 69 4 85 20 24 24
25 43 5 60 -12 10 -12 16 -4 26 17 21 2 63 -27 74 -29 11 -107 13 -117 3z
m108 -53 c0 -10 -12 -16 -32 -18 -28 -3 -33 0 -33 18 0 18 5 21 33 18 20 -2
32 -8 32 -18z m3 -62 c17 -17 -4 -38 -38 -38 -33 0 -39 6 -33 31 6 22 51 27
71 7z"/>
<path d="M2594 517 c-3 -8 -4 -49 -2 -93 l3 -79 68 -3 c62 -3 67 -1 67 18 0
17 -6 20 -45 20 -38 0 -45 3 -45 20 0 17 7 20 40 20 29 0 40 4 40 15 0 11 -11
15 -40 15 -33 0 -40 3 -40 20 0 17 7 20 46 20 38 0 45 3 42 18 -3 14 -16 18
-66 20 -46 2 -64 -1 -68 -11z"/>
<path d="M2777 523 c-4 -3 -7 -46 -7 -95 0 -87 1 -89 23 -86 20 3 22 8 19 51
-2 26 0 47 5 47 4 -1 25 -23 46 -50 23 -30 46 -50 58 -50 18 0 20 6 17 93 -3
84 -5 92 -23 92 -17 0 -20 -7 -20 -52 1 -49 0 -51 -16 -37 -10 9 -30 33 -45
55 -25 37 -43 47 -57 32z"/>
<path d="M2970 510 c0 -15 7 -20 25 -20 24 0 25 -2 25 -75 0 -73 1 -75 25 -75
24 0 25 2 25 75 0 73 1 75 25 75 18 0 25 5 25 20 0 18 -7 20 -75 20 -68 0 -75
-2 -75 -20z"/>
<path d="M3188 515 c-86 -48 -49 -175 52 -175 56 0 90 34 90 89 0 76 -77 122
-142 86z m84 -42 c24 -21 23 -58 -2 -83 -26 -26 -36 -25 -65 5 -30 29 -31 49
-5 75 24 24 47 25 72 3z"/>
<path d="M3457 523 c-4 -3 -7 -46 -7 -95 l0 -88 63 0 c68 0 107 18 107 49 0
10 -7 24 -15 31 -11 9 -12 17 -4 31 14 27 2 58 -28 70 -28 10 -106 12 -116 2z
m108 -53 c0 -10 -12 -16 -32 -18 -28 -3 -33 0 -33 18 0 18 5 21 33 18 20 -2
32 -8 32 -18z m3 -62 c17 -17 -4 -38 -39 -38 -24 0 -29 4 -29 25 0 21 5 25 28
25 15 0 33 -5 40 -12z"/>
<path d="M3710 523 c-25 -9 -52 -36 -61 -62 -12 -31 6 -86 34 -106 31 -21 89
-19 120 5 82 64 5 199 -93 163z m61 -43 c29 -16 26 -75 -6 -96 -23 -15 -27
-15 -50 0 -29 19 -34 66 -9 90 18 19 38 20 65 6z"/>
<path d="M3860 522 c0 -4 11 -24 25 -44 14 -20 25 -40 25 -43 0 -4 -14 -26
-30 -51 l-31 -44 26 0 c18 0 31 9 43 30 9 16 19 30 22 30 3 0 13 -14 22 -30
12 -21 25 -30 43 -30 29 0 28 4 -11 57 -13 17 -24 34 -24 38 0 3 11 23 25 43
30 44 31 52 6 52 -11 0 -28 -13 -38 -30 -9 -16 -20 -30 -23 -30 -3 0 -13 14
-22 30 -15 27 -58 43 -58 22z"/>
<path d="M2221 456 c-28 -33 22 -83 55 -55 8 7 14 24 12 38 -2 20 -9 27 -29
29 -14 2 -31 -4 -38 -12z"/>
<path d="M4117 463 c-14 -13 -6 -53 12 -63 36 -19 68 11 56 51 -6 19 -54 27
-68 12z"/>
</g>
</svg>
